<svg width="27" height="27" viewBox="0 0 27 27" fill="none" xmlns="http://www.w3.org/2000/svg">
<path d="M16.875 10.125H14.625V7.875C14.625 7.57663 14.5065 7.29048 14.2955 7.0795C14.0845 6.86853 13.7984 6.75 13.5 6.75C13.2016 6.75 12.9155 6.86853 12.7045 7.0795C12.4935 7.29048 12.375 7.57663 12.375 7.875V10.125H10.125C9.82663 10.125 9.54048 10.2435 9.3295 10.4545C9.11853 10.6655 9 10.9516 9 11.25C9 11.5484 9.11853 11.8345 9.3295 12.0455C9.54048 12.2565 9.82663 12.375 10.125 12.375H12.375V14.625C12.375 14.9234 12.4935 15.2095 12.7045 15.4205C12.9155 15.6315 13.2016 15.75 13.5 15.75C13.7984 15.75 14.0845 15.6315 14.2955 15.4205C14.5065 15.2095 14.625 14.9234 14.625 14.625V12.375H16.875C17.1734 12.375 17.4595 12.2565 17.6705 12.0455C17.8815 11.8345 18 11.5484 18 11.25C18 10.9516 17.8815 10.6655 17.6705 10.4545C17.4595 10.2435 17.1734 10.125 16.875 10.125ZM21.375 2.25H5.625C4.72989 2.25 3.87145 2.60558 3.23851 3.23851C2.60558 3.87145 2.25 4.72989 2.25 5.625V16.875C2.25 17.7701 2.60558 18.6286 3.23851 19.2615C3.87145 19.8944 4.72989 20.25 5.625 20.25H18.6637L22.8263 24.4237C22.9314 24.528 23.056 24.6105 23.1931 24.6665C23.3302 24.7225 23.4769 24.7509 23.625 24.75C23.7726 24.7538 23.919 24.723 24.0525 24.66C24.2579 24.5756 24.4338 24.4323 24.5579 24.2481C24.6821 24.0639 24.7489 23.8471 24.75 23.625V5.625C24.75 4.72989 24.3944 3.87145 23.7615 3.23851C23.1286 2.60558 22.2701 2.25 21.375 2.25ZM22.5 20.9137L19.9237 18.3263C19.8186 18.222 19.694 18.1395 19.5569 18.0835C19.4198 18.0275 19.2731 17.9991 19.125 18H5.625C5.32663 18 5.04048 17.8815 4.8295 17.6705C4.61853 17.4595 4.5 17.1734 4.5 16.875V5.625C4.5 5.32663 4.61853 5.04048 4.8295 4.8295C5.04048 4.61853 5.32663 4.5 5.625 4.5H21.375C21.6734 4.5 21.9595 4.61853 22.1705 4.8295C22.3815 5.04048 22.5 5.32663 22.5 5.625V20.9137Z" fill="#CFCCCC"/>
</svg>
