<svg width="27" height="27" viewBox="0 0 27 27" fill="none" xmlns="http://www.w3.org/2000/svg">
<path d="M21.8701 14.6248C21.6226 14.6248 21.3638 14.546 21.1163 14.4898C20.6151 14.3793 20.1226 14.2327 19.6426 14.051C19.1206 13.8612 18.547 13.871 18.0319 14.0787C17.5168 14.2864 17.0968 14.6773 16.8526 15.176L16.6051 15.6823C15.5093 15.0727 14.5024 14.3157 13.6126 13.4323C12.7292 12.5424 11.9721 11.5355 11.3626 10.4398L11.8351 10.1248C12.3338 9.88057 12.7247 9.46051 12.9324 8.94544C13.1401 8.43037 13.1499 7.85669 12.9601 7.33479C12.7814 6.85377 12.6349 6.36144 12.5213 5.86104C12.4651 5.61354 12.4201 5.35479 12.3863 5.09604C12.2497 4.30361 11.8346 3.586 11.2159 3.07243C10.5971 2.55887 9.81534 2.2831 9.0113 2.29479H5.6363C5.15146 2.29024 4.67133 2.39021 4.2286 2.58789C3.78587 2.78557 3.39093 3.07632 3.07066 3.44036C2.7504 3.80439 2.51233 4.23316 2.37266 4.69747C2.233 5.16178 2.19502 5.65073 2.2613 6.13104C2.86063 10.8441 5.01308 15.2232 8.37866 18.5765C11.7442 21.9299 16.1311 24.0664 20.8463 24.6485H21.2738C22.1034 24.6498 22.9044 24.3454 23.5238 23.7935C23.8797 23.4752 24.164 23.085 24.358 22.6486C24.5519 22.2123 24.651 21.7398 24.6488 21.2623V17.8873C24.635 17.1058 24.3505 16.3534 23.8437 15.7584C23.3369 15.1634 22.6393 14.7627 21.8701 14.6248ZM22.4326 21.3748C22.4324 21.5345 22.3981 21.6924 22.3322 21.8379C22.2662 21.9833 22.1701 22.1131 22.0501 22.2185C21.9243 22.3271 21.7774 22.4082 21.6185 22.4566C21.4596 22.505 21.2924 22.5197 21.1276 22.4998C16.9143 21.9596 13.0008 20.0321 10.0044 17.0214C7.0079 14.0106 5.09901 10.088 4.5788 5.87229C4.5609 5.7075 4.57659 5.54079 4.62493 5.38223C4.67327 5.22367 4.75326 5.07656 4.86005 4.94979C4.96548 4.82979 5.09525 4.73361 5.24073 4.66766C5.38621 4.60171 5.54407 4.56749 5.7038 4.56729H9.0788C9.34042 4.56147 9.59588 4.64703 9.80121 4.80925C10.0065 4.97146 10.1489 5.20018 10.2038 5.45604C10.2488 5.76354 10.3051 6.06729 10.3726 6.36729C10.5025 6.96033 10.6755 7.54312 10.8901 8.11104L9.31505 8.84229C9.18039 8.90408 9.05925 8.99186 8.9586 9.10059C8.85796 9.20932 8.77978 9.33686 8.72856 9.47588C8.67734 9.61491 8.65408 9.76269 8.66013 9.91073C8.66618 10.0588 8.70141 10.2042 8.7638 10.3385C10.3829 13.8066 13.1707 16.5944 16.6388 18.2135C16.9127 18.3261 17.2199 18.3261 17.4938 18.2135C17.6341 18.1634 17.763 18.0858 17.8731 17.9854C17.9832 17.885 18.0722 17.7637 18.1351 17.6285L18.8326 16.0535C19.4141 16.2615 20.0077 16.4343 20.6101 16.571C20.9101 16.6385 21.2138 16.6948 21.5213 16.7398C21.7772 16.7947 22.0059 16.937 22.1681 17.1424C22.3303 17.3477 22.4159 17.6032 22.4101 17.8648L22.4326 21.3748Z" fill="#CFCCCC"/>
</svg>
