<svg width="31" height="31" viewBox="0 0 31 31" fill="none" xmlns="http://www.w3.org/2000/svg">
<path d="M26.6212 24.7871C27.4307 23.702 27.9862 22.449 28.2467 21.1206C28.5072 19.7921 28.4661 18.4221 28.1264 17.1117C27.7867 15.8013 27.1571 14.5838 26.284 13.5492C25.411 12.5146 24.3167 11.6893 23.082 11.1341C22.8131 9.58686 22.195 8.12123 21.2748 6.84861C20.3545 5.576 19.1563 4.52989 17.7711 3.78977C16.386 3.04964 14.8504 2.63498 13.2809 2.57729C11.7115 2.51959 10.1496 2.82039 8.71383 3.45681C7.27808 4.09324 6.00628 5.04855 4.99507 6.25016C3.98386 7.45177 3.25984 8.86807 2.87803 10.3914C2.49621 11.9148 2.46665 13.5051 2.79159 15.0416C3.11653 16.5781 3.78742 18.0204 4.75328 19.2587L2.95786 21.0412C2.77863 21.2229 2.65722 21.4535 2.60894 21.7041C2.56067 21.9547 2.58769 22.2139 2.68661 22.4491C2.78351 22.685 2.94807 22.8869 3.15954 23.0295C3.37101 23.172 3.61993 23.2487 3.87494 23.25H11.2245C11.9564 24.793 13.1104 26.0972 14.5528 27.0116C15.9952 27.9259 17.6671 28.4131 19.3749 28.4166H27.1249C27.38 28.4154 27.6289 28.3386 27.8403 28.1961C28.0518 28.0536 28.2164 27.8517 28.3133 27.6158C28.4122 27.3806 28.4392 27.1213 28.3909 26.8708C28.3427 26.6202 28.2213 26.3895 28.042 26.2079L26.6212 24.7871ZM10.3333 19.375C10.3351 19.8075 10.3696 20.2393 10.4366 20.6666H6.98786L7.43994 20.2275C7.56101 20.1074 7.6571 19.9645 7.72268 19.8071C7.78825 19.6497 7.82202 19.4809 7.82202 19.3104C7.82202 19.1399 7.78825 18.9711 7.72268 18.8137C7.6571 18.6562 7.56101 18.5134 7.43994 18.3933C6.71604 17.6774 6.14214 16.8242 5.7518 15.8839C5.36147 14.9435 5.16252 13.9348 5.16661 12.9166C5.16661 10.8612 5.98313 8.88997 7.43653 7.43657C8.88994 5.98316 10.8612 5.16664 12.9166 5.16664C14.5205 5.15701 16.087 5.65022 17.396 6.57697C18.705 7.50371 19.6907 8.81738 20.2145 10.3333C19.9304 10.3333 19.6591 10.3333 19.3749 10.3333C16.9769 10.3333 14.6772 11.2859 12.9815 12.9816C11.2859 14.6772 10.3333 16.977 10.3333 19.375ZM23.9474 25.8333L24.012 25.8979H19.3749C17.8809 25.8952 16.434 25.3747 15.2808 24.4249C14.1275 23.4751 13.3392 22.1548 13.0502 20.689C12.7611 19.2232 12.9892 17.7026 13.6956 16.3861C14.402 15.0696 15.5429 14.0387 16.9241 13.4691C18.3052 12.8995 19.8412 12.8263 21.2702 13.2621C22.6993 13.6979 23.9331 14.6156 24.7614 15.859C25.5897 17.1024 25.9613 18.5945 25.8129 20.0811C25.6645 21.5678 25.0052 22.957 23.9474 24.0121C23.7041 24.2505 23.5648 24.5755 23.5599 24.9162C23.5607 25.0871 23.5953 25.2562 23.6618 25.4136C23.7283 25.571 23.8254 25.7137 23.9474 25.8333Z" fill="#CFCCCC"/>
</svg>
