<svg width="27" height="27" viewBox="0 0 27 27" fill="none" xmlns="http://www.w3.org/2000/svg">
<path d="M22.5 9.00007L15.75 3.08257C15.1312 2.52912 14.3302 2.22314 13.5 2.22314C12.6698 2.22314 11.8688 2.52912 11.25 3.08257L4.49998 9.00007C4.14265 9.31965 3.8575 9.71169 3.66352 10.1501C3.46953 10.5885 3.37117 11.0632 3.37498 11.5426V21.3751C3.37498 22.2702 3.73056 23.1286 4.3635 23.7616C4.99643 24.3945 5.85488 24.7501 6.74998 24.7501H20.25C21.1451 24.7501 22.0035 24.3945 22.6365 23.7616C23.2694 23.1286 23.625 22.2702 23.625 21.3751V11.5313C23.6272 11.0538 23.5281 10.5813 23.3341 10.145C23.1402 9.70862 22.8559 9.31839 22.5 9.00007ZM15.75 22.5001H11.25V16.8751C11.25 16.5767 11.3685 16.2906 11.5795 16.0796C11.7905 15.8686 12.0766 15.7501 12.375 15.7501H14.625C14.9234 15.7501 15.2095 15.8686 15.4205 16.0796C15.6315 16.2906 15.75 16.5767 15.75 16.8751V22.5001ZM21.375 21.3751C21.375 21.6734 21.2565 21.9596 21.0455 22.1706C20.8345 22.3815 20.5484 22.5001 20.25 22.5001H18V16.8751C18 15.98 17.6444 15.1215 17.0115 14.4886C16.3785 13.8556 15.5201 13.5001 14.625 13.5001H12.375C11.4799 13.5001 10.6214 13.8556 9.9885 14.4886C9.35556 15.1215 8.99998 15.98 8.99998 16.8751V22.5001H6.74998C6.45162 22.5001 6.16547 22.3815 5.95449 22.1706C5.74351 21.9596 5.62498 21.6734 5.62498 21.3751V11.5313C5.62519 11.3716 5.6594 11.2137 5.72535 11.0682C5.79131 10.9228 5.88748 10.793 6.00748 10.6876L12.7575 4.78132C12.9628 4.60096 13.2267 4.50149 13.5 4.50149C13.7733 4.50149 14.0372 4.60096 14.2425 4.78132L20.9925 10.6876C21.1125 10.793 21.2087 10.9228 21.2746 11.0682C21.3406 11.2137 21.3748 11.3716 21.375 11.5313V21.3751Z" fill="#CFCCCC"/>
</svg>
