<svg width="27" height="27" viewBox="0 0 27 27" fill="none" xmlns="http://www.w3.org/2000/svg">
<path d="M17.6738 14.2986C18.7767 13.4308 19.5818 12.2409 19.977 10.8943C20.3721 9.54767 20.3377 8.11138 19.8786 6.78524C19.4194 5.45909 18.5583 4.30903 17.4151 3.49505C16.2719 2.68107 14.9034 2.24365 13.5001 2.24365C12.0967 2.24365 10.7282 2.68107 9.58498 3.49505C8.44177 4.30903 7.5807 5.45909 7.12155 6.78524C6.6624 8.11138 6.62801 9.54767 7.02316 10.8943C7.41832 12.2409 8.22337 13.4308 9.32631 14.2986C7.43639 15.0558 5.78738 16.3116 4.55506 17.9322C3.32274 19.5529 2.55332 21.4776 2.32881 23.5011C2.31256 23.6488 2.32556 23.7983 2.36709 23.941C2.40861 24.0837 2.47783 24.2169 2.57081 24.3328C2.75858 24.567 3.03169 24.717 3.33006 24.7498C3.62843 24.7827 3.92761 24.6956 4.1618 24.5078C4.39598 24.3201 4.54599 24.047 4.57881 23.7486C4.82584 21.5494 5.87445 19.5184 7.5243 18.0435C9.17415 16.5686 11.3096 15.7532 13.5226 15.7532C15.7355 15.7532 17.871 16.5686 19.5208 18.0435C21.1707 19.5184 22.2193 21.5494 22.4663 23.7486C22.4969 24.025 22.6288 24.2803 22.8366 24.4652C23.0443 24.6501 23.3132 24.7515 23.5913 24.7498H23.7151C24.01 24.7159 24.2795 24.5668 24.4649 24.335C24.6504 24.1032 24.7367 23.8075 24.7051 23.5123C24.4795 21.4831 23.7059 19.5534 22.4673 17.9303C21.2286 16.3072 19.5716 15.0517 17.6738 14.2986ZM13.5001 13.4998C12.61 13.4998 11.74 13.2359 11 12.7414C10.26 12.247 9.68319 11.5442 9.3426 10.7219C9.002 9.89964 8.91289 8.99484 9.08652 8.12193C9.26016 7.24901 9.68874 6.44719 10.3181 5.81785C10.9474 5.18852 11.7492 4.75993 12.6222 4.5863C13.4951 4.41267 14.3999 4.50178 15.2221 4.84238C16.0444 5.18297 16.7472 5.75975 17.2417 6.49977C17.7361 7.23979 18.0001 8.10982 18.0001 8.99984C18.0001 10.1933 17.526 11.3379 16.682 12.1818C15.8381 13.0257 14.6935 13.4998 13.5001 13.4998Z" fill="#CFCCCC"/>
</svg>
